<svg width="73" height="63" viewBox="0 0 73 63" fill="none" xmlns="http://www.w3.org/2000/svg">
<path fill-rule="evenodd" clip-rule="evenodd" d="M64.4355 19.9933C61.8187 19.9933 59.6974 22.1365 59.6974 24.7802C59.6974 27.4239 61.8187 29.5671 64.4355 29.5671C67.0523 29.5671 69.1736 27.4239 69.1736 24.7802C69.1736 22.1365 67.0523 19.9933 64.4355 19.9933ZM55.871 24.7802C55.871 20.0015 59.7055 16.1275 64.4355 16.1275C69.1655 16.1275 73 20.0015 73 24.7802C73 29.559 69.1655 33.4329 64.4355 33.4329C59.7055 33.4329 55.871 29.559 55.871 24.7802Z" fill="#40DDB6"/>
<path fill-rule="evenodd" clip-rule="evenodd" d="M8.5645 19.9933C5.9477 19.9933 3.82637 22.1365 3.82637 24.7802C3.82637 27.4239 5.9477 29.5671 8.5645 29.5671C11.1813 29.5671 13.3026 27.4239 13.3026 24.7802C13.3026 22.1365 11.1813 19.9933 8.5645 19.9933ZM0 24.7802C0 20.0015 3.83446 16.1275 8.5645 16.1275C13.2945 16.1275 17.129 20.0015 17.129 24.7802C17.129 29.559 13.2945 33.4329 8.5645 33.4329C3.83446 33.4329 0 29.559 0 24.7802Z" fill="#6B78E5"/>
<path fill-rule="evenodd" clip-rule="evenodd" d="M24.5276 3.86577C21.9108 3.86577 19.7895 6.00895 19.7895 8.65269C19.7895 11.2964 21.9108 13.4396 24.5276 13.4396C27.1444 13.4396 29.2658 11.2964 29.2658 8.65269C29.2658 6.00895 27.1444 3.86577 24.5276 3.86577ZM15.9631 8.65269C15.9631 3.87394 19.7976 0 24.5276 0C29.2577 0 33.0921 3.87394 33.0921 8.65269C33.0921 13.4314 29.2577 17.3054 24.5276 17.3054C19.7976 17.3054 15.9631 13.4314 15.9631 8.65269Z" fill="#40DDB6"/>
<path fill-rule="evenodd" clip-rule="evenodd" d="M48.4724 3.86577C45.8556 3.86577 43.7342 6.00895 43.7342 8.65269C43.7342 11.2964 45.8556 13.4396 48.4724 13.4396C51.0892 13.4396 53.2105 11.2964 53.2105 8.65269C53.2105 6.00895 51.0892 3.86577 48.4724 3.86577ZM39.9079 8.65269C39.9079 3.87394 43.7423 0 48.4724 0C53.2024 0 57.0369 3.87394 57.0369 8.65269C57.0369 13.4314 53.2024 17.3054 48.4724 17.3054C43.7423 17.3054 39.9079 13.4314 39.9079 8.65269Z" fill="#6B78E5"/>
<path fill-rule="evenodd" clip-rule="evenodd" d="M28.1465 24.2728C30.554 22.4409 33.4861 21.4502 36.5 21.4502C39.5139 21.4502 42.446 22.4409 44.8535 24.2728C47.261 26.1046 49.0132 28.6781 49.8455 31.6046C50.7605 34.8219 52.8942 37.5447 55.7835 39.1826C58.2256 40.5299 60.1557 42.6587 61.2703 45.2348C62.3865 47.8145 62.6215 50.6961 61.9382 53.4256C61.2549 56.1552 59.6922 58.5775 57.4962 60.3109C55.3003 62.0443 52.5959 62.9904 49.8091 63L49.8038 63C48.124 63.001 46.4608 62.6651 44.9106 62.0117C42.2443 60.8951 39.3863 60.3204 36.5 60.3204C33.6138 60.3204 30.7559 60.8951 28.0896 62.0116C26.5393 62.6651 24.876 63.001 23.1962 63L23.1908 63C20.4041 62.9904 17.6997 62.0443 15.5037 60.3109C13.3077 58.5775 11.745 56.1552 11.0617 53.4256C10.3784 50.6961 10.6134 47.8145 11.7296 45.2348C12.8443 42.6587 14.7743 40.5299 17.2165 39.1826C20.1057 37.5447 22.2394 34.8218 23.1544 31.6046C23.9867 28.6781 25.739 26.1046 28.1465 24.2728ZM36.5 25.316C34.3166 25.316 32.1925 26.0337 30.4484 27.3607C28.7043 28.6878 27.435 30.5521 26.832 32.6722C25.6376 36.8718 22.8507 40.4254 19.0772 42.5605C19.0707 42.5642 19.0642 42.5678 19.0577 42.5714C17.3563 43.5079 16.0117 44.9896 15.2357 46.7832C14.4596 48.5767 14.2962 50.5801 14.7713 52.4778C15.2464 54.3755 16.3328 56.0595 17.8595 57.2647C19.3855 58.4692 21.2645 59.1269 23.201 59.1342C24.3738 59.1346 25.5351 58.8998 26.6175 58.4434L26.6217 58.4416C29.7532 57.1299 33.11 56.4547 36.5 56.4547C39.89 56.4547 43.2468 57.1299 46.3783 58.4416L46.3825 58.4434C47.4648 58.8998 48.6261 59.1346 49.799 59.1342C51.7354 59.1269 53.6145 58.4692 55.1404 57.2647C56.6671 56.0595 57.7536 54.3755 58.2286 52.4778C58.7037 50.5801 58.5403 48.5767 57.7643 46.7832C56.9882 44.9896 55.6436 43.5079 53.9423 42.5714C53.9357 42.5678 53.9292 42.5642 53.9227 42.5605C50.1492 40.4254 47.3623 36.8718 46.168 32.6722C45.565 30.5521 44.2956 28.6878 42.5515 27.3607C40.8075 26.0337 38.6834 25.316 36.5 25.316Z" fill="#6B78E5"/>
</svg>
